<svg id="emoji" viewBox="0 0 72 72" xmlns="http://www.w3.org/2000/svg"><style>@media (prefers-color-scheme:dark){.a{fill:#2f3031}.b{fill:#fff}}</style><g id="color"><path class="a" fill="#D0CFCE" stroke-miterlimit="10" stroke-width="2" d="M66.12 26.296C66.12 20.353 61 14.136 61 16s.947 26.632.947 26.632L61 58.83a2 2 0 1 0 4 0l-.529-16.29s1.65-10.3 1.65-16.243z"/><path class="a" fill="#D0CFCE" stroke-linecap="round" stroke-linejoin="round" stroke-miterlimit="10" stroke-width="2" d="M11.421 16.74s.112 4.158.112 8.106c0 2.96-.9 4.82-2.181 5.565l.028 28.418a2 2 0 1 1-4 0l.811-28.413C4.904 29.677 4 27.814 4 24.846c0-3.948.112-8.106.112-8.106"/><path fill="#D0CFCE" stroke-linecap="round" stroke-linejoin="round" stroke-miterlimit="10" stroke-width="2" d="M7.766 16.74v9.585"/><circle cx="36" cy="35.958" r="19.958" fill="#D0CFCE" stroke-linecap="round" stroke-linejoin="round" stroke-miterlimit="10" stroke-width="2"/><circle cx="36.004" cy="36" r="12.149" fill="#D0CFCE" stroke-linecap="round" stroke-linejoin="round" stroke-miterlimit="10" stroke-width="2"/></g><g id="line"><path class="b" fill="none" stroke="#000" stroke-miterlimit="10" stroke-width="2" d="M66.12 26.296C66.12 20.353 61 14.136 61 16s.947 26.632.947 26.632L61 58.83a2 2 0 1 0 4 0l-.529-16.29s1.65-10.3 1.65-16.243z"/><path class="b" fill="none" stroke="#000" stroke-linecap="round" stroke-linejoin="round" stroke-miterlimit="10" stroke-width="2" d="M11.421 16.74s.112 4.158.112 8.106c0 2.96-.9 4.82-2.181 5.565h0l.028 28.418a2 2 0 1 1-4 0l.811-28.413h0C4.904 29.677 4 27.814 4 24.846c0-3.948.112-8.106.112-8.106"/><path fill="none" stroke="#000" stroke-linecap="round" stroke-linejoin="round" stroke-miterlimit="10" stroke-width="2" d="M7.766 16.74v9.585"/><circle cx="36" cy="35.958" r="19.958" fill="none" stroke="#000" stroke-linecap="round" stroke-linejoin="round" stroke-miterlimit="10" stroke-width="2"/><circle cx="36.004" cy="36" r="12.149" fill="none" stroke="#000" stroke-linecap="round" stroke-linejoin="round" stroke-miterlimit="10" stroke-width="2"/></g></svg>